PathFileType	4	(X/Y/Z)	pose_F01_0-94.trc
DataRate	CameraRate	NumFrames	NumMarkers	Units	OrigDataRate	OrigDataStartFrame	OrigNumFrames
30	30	8	21	m	30	47	94
Frame#	Time	CHip			RHip			RKnee			RAnkle			RBigToe			RSmallToe			RHeel			LHip			LKnee			LAnkle			LBigToe			LSmallToe			LHeel			Neck			Nose			RShoulder			RElbow			RWrist			LShoulder			LElbow			LWrist			
		X1	Y1	Z1	X2	Y2	Z2	X3	Y3	Z3	X4	Y4	Z4	X5	Y5	Z5	X6	Y6	Z6	X7	Y7	Z7	X8	Y8	Z8	X9	Y9	Z9	X10	Y10	Z10	X11	Y11	Z11	X12	Y12	Z12	X13	Y13	Z13	X14	Y14	Z14	X15	Y15	Z15	X16	Y16	Z16	X17	Y17	Z17	X18	Y18	Z18	X19	Y19	Z19	X20	Y20	Z20	X21	Y21	Z21	
47	1.5666666666666667	-0.2997526405924357	1.6217654588786454	-0.2946288341533798	-0.30691660547221716	1.6196347747690045	-0.23778757694731872	-0.18566780890922058	1.5891403017954862	-0.21618367920458287	-0.294572388768635	1.5412383195168542	-0.23581712898631024	-0.2635300791668511	1.5026676388235307	-0.21582856552205526	-0.27695359443076795	1.5086215393730908	-0.20124100141434198	-0.31241831311095825	1.5486773086474488	-0.24173991378854473	-0.28879270100008814	1.6281742853470456	-0.35081995360501134	-0.17266373603515484	1.6226434848493825	-0.33024261897347695	-0.2562452868500556	1.5247421166232729	-0.3220706470087097	-0.20442218532203305	1.4993131277643865	-0.3106959078992689	-0.21208217596412374	1.4959533192086085	-0.3307681304324214	-0.2674119231517259	1.5149481931575366	-0.32731614700861794	-0.22571328248666633	1.7381376319501047	-0.30047681322663394	-0.15310239338247053	1.7440132610199386	-0.282483323897472	-0.23745903629777682	1.7338117242384623	-0.22786882464555672	-0.1993728071389154	1.6313636229995276	-0.22214219371753105	-0.18182574248147837	1.7059497365137313	-0.2558264707859063	-0.21452206034949722	1.7437217613763003	-0.37092684227348766	-0.1784807487634124	1.6672504802217751	-0.39113559451021634	-0.1717310233703027	1.705807092755604	-0.3362881685206445
48	1.6	-0.30021499839723176	1.6255604734981008	-0.29003496697008446	-0.30687212747427206	1.6195279154332398	-0.23777210277198105	-0.18591978044780266	1.5907809050385735	-0.21614884332000298	-0.29460184880816975	1.5415953053976788	-0.23570040666205544	-0.2634877593349987	1.5026002427110232	-0.21575400984955484	-0.27417268160593583	1.5103878623457243	-0.1997091978291055	-0.3113129176935842	1.546964827206596	-0.23780727800559204	-0.2922924008059379	1.6283494654147237	-0.3468818447968144	-0.17467562760551147	1.6238776098542225	-0.3375818098297377	-0.2560828259070107	1.5263865855473298	-0.3228476973745778	-0.20366547946204755	1.4993730462370507	-0.3163278472958438	-0.21162766120580617	1.497647758312498	-0.33608529933044096	-0.2672648175375669	1.5177145487846617	-0.3328797000702135	-0.2257472458037372	1.740859988134817	-0.30089079073303765	-0.14964781377516304	1.7449672284144762	-0.2867271722546497	-0.23775047759652745	1.736763352867888	-0.228198001489606	-0.20218683020256262	1.6339252654153025	-0.22391016971565111	-0.1787353607135875	1.7090374519848883	-0.26000197775791833	-0.21584929539181166	1.7463500948198232	-0.3697448736066496	-0.17866765884597258	1.6660548569992328	-0.39075666264891795	-0.17146824033595376	1.7206749658067928	-0.3390728814058871
49	1.6333333333333333	-0.2963136154337989	1.6273132771682195	-0.29472182458166385	-0.30506660131828517	1.6221432506802902	-0.24020323192463996	-0.18578847972125853	1.5892431775610236	-0.2162252172202601	-0.29456788638237286	1.541467081570448	-0.2357055117779942	-0.2618960134373906	1.495488826215853	-0.21600135880707094	-0.27308347585373793	1.507576817655159	-0.20534799103268808	-0.31139977470508134	1.5470750572525813	-0.2380512365216136	-0.2884977914392102	1.6292210849369666	-0.35121188727765557	-0.1727394893917876	1.6253984691106573	-0.3305008131309718	-0.2534366603735991	1.5264277465663667	-0.3206159542527921	-0.20175886607571517	1.499441460930602	-0.31850586869911385	-0.20983371414086366	1.498256160910203	-0.3382050096654128	-0.26639489220941137	1.5195067060958052	-0.3291861880877065	-0.22402053586160142	1.7399730125101422	-0.302731134432074	-0.15132987910771364	1.7426397154611442	-0.2844159909606971	-0.23779369265879569	1.7368120713680877	-0.22822469935300982	-0.20047541931824486	1.6313544702528502	-0.22562218097621856	-0.17860238036549078	1.707315201154726	-0.25999948327841643	-0.21389629531113888	1.7437982270562349	-0.37143826439382155	-0.17938507723301897	1.6641344813897205	-0.38507626304438425	-0.17120545730160483	1.7355428388579817	-0.3418575942911297
50	1.6666666666666667	-0.2993201319335155	1.624111779369663	-0.29553254791269734	-0.3066637136564726	1.6179849252559653	-0.23774130629827903	-0.18752238959689274	1.589143861421096	-0.2140976769480872	-0.2945501013325945	1.5410226523672026	-0.23582617237948342	-0.2650842336426591	1.501003691378096	-0.2140160454568177	-0.27878092742655336	1.508841844338375	-0.1992179633819321	-0.31115633724205455	1.5478275002970279	-0.23868660956732704	-0.2888369305279057	1.6283276239472808	-0.3508777072503588	-0.17039530123439964	1.6282214228445138	-0.3292834585718897	-0.25452764228862607	1.5262471002739315	-0.32387730673332044	-0.19994349544056944	1.4997798540737102	-0.32054266613652915	-0.20989955658688478	1.4986908509405075	-0.33817402687656944	-0.26678336773019284	1.518804383188722	-0.3286292414097301	-0.22277989277333998	1.738348375830459	-0.29931269968935703	-0.15139060866840917	1.7430486808542076	-0.284265141728072	-0.23630298599355046	1.7337652877127734	-0.22449106385958967	-0.19916691936819944	1.6324553249839624	-0.22261706936752307	-0.18025664000639371	1.7053859333229129	-0.25760157284077323	-0.2123886520173046	1.7447919504362936	-0.3735610344960247	-0.17551069701795105	1.6643039039145755	-0.389517986167836	-0.1709426742672559	1.7504107119091705	-0.3446423071763723
51	1.7	-0.29538737157008726	1.6224262736613584	-0.3044468812052954	-0.30410574085046643	1.6209059204135683	-0.2508108642444172	-0.18577266160997333	1.5891633243009595	-0.21620090472655737	-0.2944805671852	1.5413088330951228	-0.23577854566310996	-0.26293244249410863	1.4996980754362588	-0.2159926933425279	-0.27510750819503116	1.5086352994296757	-0.20334174198267213	-0.30919198687591953	1.547821476326047	-0.2405921165327449	-0.2846021636708886	1.6255156909965087	-0.35531089265699417	-0.17181715760602864	1.6215156256894967	-0.3262372607330962	-0.25644091013630954	1.526180939741472	-0.3218533689422127	-0.203992981655943	1.5009647043930796	-0.31602849913143005	-0.211941496997283	1.4991317397251944	-0.33572666485813696	-0.267604631823485	1.5198956237713905	-0.332169451687242	-0.22741066081075037	1.739940448731027	-0.313075438209442	-0.15424940413360907	1.740323804076717	-0.2851298641603176	-0.2437901244283203	1.7358969006968792	-0.24526026562282363	-0.20044124467565222	1.628653633449937	-0.22521781438683183	-0.17785901049376973	1.7011967798392007	-0.25959496384077674	-0.21434907259144836	1.741952375438183	-0.37087394897261244	-0.16957867577058028	1.6540285525279221	-0.3763891482960062	-0.17067989123290697	1.7652785849603596	-0.3474270200616149
52	1.7333333333333334	-0.293781528355697	1.621755019046952	-0.30159828558649177	-0.30291508714492354	1.6168416076279402	-0.2421542183954058	-0.18569898601401338	1.589193003383397	-0.21625386633798732	-0.2945481667019209	1.5416280454037246	-0.23581727668165037	-0.2602091172580694	1.496198599781886	-0.21819615291078112	-0.27143408896350896	1.5084287545209762	-0.20746552058341217	-0.3108505676468096	1.5497410451983475	-0.2441506937655024	-0.28669011480294926	1.6269023280226251	-0.3532074576812283	-0.17218454082786677	1.629017976058178	-0.3458333328305667	-0.2525624301716863	1.5281643506000437	-0.31685104748778736	-0.20461042045462768	1.5033234687101678	-0.3160995117356181	-0.2148677371540696	1.5036433024249558	-0.3333246445703392	-0.26650216547632904	1.5205265552505576	-0.3286609384182608	-0.2208460121380127	1.7368588576580652	-0.3013761122048798	-0.15329326765465978	1.7430152301781499	-0.28198662721231266	-0.23624798163277955	1.7313160570890762	-0.22394974410986687	-0.19932025629808553	1.6312674282903044	-0.22193738682654815	-0.17962241816218064	1.7071259851658838	-0.26334088456885535	-0.21128794567263462	1.7431482457217733	-0.3790452533566917	-0.17396109956233807	1.6646869123445287	-0.39120604671180614	-0.17041710819855804	1.7801464580115485	-0.3502117329468575
53	1.7666666666666666	-0.28869788699797366	1.6338198603752248	-0.2943250085962635	-0.2952494243848994	1.629400203599484	-0.23773002256843825	-0.18886627572947892	1.5906239388410766	-0.21741751302061765	-0.29454983354449105	1.5414459701961885	-0.23577589866905765	-0.2641566702918943	1.4978608561572568	-0.2136314734327064	-0.2703649750587004	1.5090474042153652	-0.20407335314828526	-0.3095991840919266	1.5475142798504748	-0.23994548391535353	-0.2827703412828382	1.6358878364752516	-0.34900489552339836	-0.169714768087816	1.6226372829142317	-0.32886448301336385	-0.25339812907602793	1.5264509297086268	-0.320474894954925	-0.20367452590375376	1.499239882440616	-0.31629351250166854	-0.2138142833020492	1.498952564159921	-0.3335214380220714	-0.26619340985671264	1.5187327461643298	-0.32906201809730845	-0.2215673633637571	1.7513797911065305	-0.3073728147733271	-0.14862895650526342	1.7591990019533619	-0.28565399965752286	-0.23425592768604203	1.7426302593844043	-0.22837832188152726	-0.20166606738389947	1.6418056571306443	-0.22060776441705487	-0.17964744815978095	1.7103213066016958	-0.2639234283639455	-0.20903786437406485	1.7577696822847588	-0.384021814783796	-0.17303517459034967	1.6685826065783178	-0.39738029384423534	-0.1701543251642091	1.7950143310627373	-0.3529964458321001
54	1.8	-0.2876573678614404	1.6588193189006548	-0.29407068777797635	-0.29395904855904287	1.6571967828577616	-0.2428653896979429	-0.19074418140895252	1.5935433951004	-0.21562736364721607	-0.29369138563332753	1.5445144695312543	-0.23183703365183503	-0.26125321302502574	1.5002852537601035	-0.21816515145417945	-0.2719290631947325	1.510870997616858	-0.20218623791614168	-0.31131540764819193	1.54784391333893	-0.2373371114533839	-0.2815594742587379	1.6597947320046702	-0.3486326806949962	-0.17220181532426124	1.6239633071736925	-0.3213817023451836	-0.25577063033309444	1.5290083678527633	-0.31820714037009595	-0.20225424211076062	1.5002703230314425	-0.32716264702872255	-0.21285024609848055	1.5019388053138727	-0.3445379046071945	-0.2673089686848296	1.524509716862752	-0.32844229665203656	-0.22182667736012143	1.7695059683749306	-0.31035122102123425	-0.13815018141077828	1.784096180267458	-0.2980367357719727	-0.23390697702214042	1.7634075888869325	-0.23714539206364613	-0.2165080833130771	1.6782333469838033	-0.20929711575012097	-0.17803818977436586	1.7441736017758867	-0.27231841903533927	-0.20857445602993785	1.7729772032448918	-0.39151208098305124	-0.1695593599707474	1.6924493330479315	-0.39605584407594113	-0.16989154212986018	1.8098822041139262	-0.35578115871734267
